<mxfile host="app.diagrams.net" agent="Mozilla/5.0 (Windows NT 10.0; Win64; x64) AppleWebKit/537.36 (KHTML, like Gecko) Chrome/129.0.0.0 Safari/537.36" version="24.7.17">
  <diagram name="第 1 页" id="sh6sQ-BMeI4svmq7PAsU">
    <mxGraphModel dx="1434" dy="738" grid="1" gridSize="10" guides="1" tooltips="1" connect="1" arrows="1" fold="1" page="1" pageScale="1" pageWidth="827" pageHeight="1169" math="0" shadow="0">
      <root>
        <mxCell id="0" />
        <mxCell id="1" parent="0" />
        <mxCell id="jCoBixZJ-D_qapVqFaD_-38" value="" style="group" vertex="1" connectable="0" parent="1">
          <mxGeometry x="102.3467944991533" y="399.8516749596999" width="635.9741797338736" height="620.1483250403" as="geometry" />
        </mxCell>
        <mxCell id="jCoBixZJ-D_qapVqFaD_-18" value="" style="ellipse;whiteSpace=wrap;html=1;rotation=-50;opacity=30;fillColor=#ffe6cc;strokeColor=#2940D7;strokeWidth=2;" vertex="1" parent="jCoBixZJ-D_qapVqFaD_-38">
          <mxGeometry x="107.6532055008467" y="110.14832504030011" width="378.74" height="195.5" as="geometry" />
        </mxCell>
        <mxCell id="jCoBixZJ-D_qapVqFaD_-37" value="" style="group" vertex="1" connectable="0" parent="jCoBixZJ-D_qapVqFaD_-38">
          <mxGeometry y="21.04578466185626" width="635.9741797338736" height="599.1025403784438" as="geometry" />
        </mxCell>
        <mxCell id="jCoBixZJ-D_qapVqFaD_-17" value="" style="ellipse;whiteSpace=wrap;html=1;rotation=-135;strokeWidth=2;opacity=80;fillColor=#f8cecc;strokeColor=#b85450;" vertex="1" parent="jCoBixZJ-D_qapVqFaD_-37">
          <mxGeometry x="23.7732055008467" y="226.74254037844383" width="424.61" height="243.12" as="geometry" />
        </mxCell>
        <mxCell id="jCoBixZJ-D_qapVqFaD_-16" value="" style="ellipse;whiteSpace=wrap;html=1;rotation=30;strokeWidth=2;opacity=70;fillColor=#d5e8d4;strokeColor=#82b366;" vertex="1" parent="jCoBixZJ-D_qapVqFaD_-37">
          <mxGeometry x="44.3032055008467" y="91.60254037844385" width="420" height="200" as="geometry" />
        </mxCell>
        <mxCell id="jCoBixZJ-D_qapVqFaD_-21" value="&lt;font style=&quot;font-size: 24px;&quot;&gt;CNN&lt;/font&gt;" style="text;html=1;align=center;verticalAlign=middle;resizable=0;points=[];autosize=1;strokeColor=none;fillColor=none;" vertex="1" parent="jCoBixZJ-D_qapVqFaD_-37">
          <mxGeometry x="107.6532055008467" y="79.10254037844385" width="80" height="40" as="geometry" />
        </mxCell>
        <mxCell id="jCoBixZJ-D_qapVqFaD_-23" value="&lt;font style=&quot;font-size: 24px;&quot;&gt;RNN&lt;/font&gt;" style="text;html=1;align=center;verticalAlign=middle;resizable=0;points=[];autosize=1;strokeColor=none;fillColor=none;" vertex="1" parent="jCoBixZJ-D_qapVqFaD_-37">
          <mxGeometry x="327.6532055008467" y="49.10254037844385" width="80" height="40" as="geometry" />
        </mxCell>
        <mxCell id="jCoBixZJ-D_qapVqFaD_-25" value="" style="group" vertex="1" connectable="0" parent="jCoBixZJ-D_qapVqFaD_-37">
          <mxGeometry x="217.6541797338735" y="109.10351461147064" width="418.32" height="489.9990257669732" as="geometry" />
        </mxCell>
        <mxCell id="jCoBixZJ-D_qapVqFaD_-19" value="" style="ellipse;whiteSpace=wrap;html=1;rotation=-45;opacity=30;fillColor=#e1d5e7;strokeColor=#9673a6;strokeWidth=2;" vertex="1" parent="jCoBixZJ-D_qapVqFaD_-25">
          <mxGeometry x="-19.160000000000004" y="40" width="388.32" height="225.47" as="geometry" />
        </mxCell>
        <mxCell id="jCoBixZJ-D_qapVqFaD_-24" value="&lt;font style=&quot;font-size: 24px;&quot;&gt;Attention&lt;/font&gt;" style="text;html=1;align=center;verticalAlign=middle;resizable=0;points=[];autosize=1;strokeColor=none;fillColor=none;" vertex="1" parent="jCoBixZJ-D_qapVqFaD_-25">
          <mxGeometry x="224.9990257669732" y="29.999025766973233" width="120" height="40" as="geometry" />
        </mxCell>
        <mxCell id="jCoBixZJ-D_qapVqFaD_-30" value="&lt;font style=&quot;font-size: 18px;&quot;&gt;CNN+RNN+Attention&lt;/font&gt;" style="text;html=1;align=center;verticalAlign=middle;resizable=0;points=[];autosize=1;strokeColor=none;fillColor=none;" vertex="1" parent="jCoBixZJ-D_qapVqFaD_-25">
          <mxGeometry x="24.099025766973227" y="119.9990257669732" width="190" height="40" as="geometry" />
        </mxCell>
        <mxCell id="jCoBixZJ-D_qapVqFaD_-31" value="&lt;font style=&quot;font-size: 18px;&quot;&gt;RNN+Attention&lt;/font&gt;" style="text;html=1;align=center;verticalAlign=middle;resizable=0;points=[];autosize=1;strokeColor=none;fillColor=none;" vertex="1" parent="jCoBixZJ-D_qapVqFaD_-25">
          <mxGeometry x="104.9990257669732" y="169.9990257669732" width="140" height="40" as="geometry" />
        </mxCell>
        <mxCell id="jCoBixZJ-D_qapVqFaD_-35" value="&lt;font style=&quot;font-size: 18px;&quot;&gt;Attention+GCN&lt;/font&gt;" style="text;html=1;align=center;verticalAlign=middle;resizable=0;points=[];autosize=1;strokeColor=none;fillColor=none;" vertex="1" parent="jCoBixZJ-D_qapVqFaD_-25">
          <mxGeometry x="18.999025766973205" y="265.46902576697323" width="150" height="40" as="geometry" />
        </mxCell>
        <mxCell id="jCoBixZJ-D_qapVqFaD_-27" value="" style="group;rotation=-60;" vertex="1" connectable="0" parent="jCoBixZJ-D_qapVqFaD_-25">
          <mxGeometry x="229.9990257669732" y="189.9990257669732" width="188.32000000000005" height="290" as="geometry" />
        </mxCell>
        <mxCell id="jCoBixZJ-D_qapVqFaD_-20" value="" style="ellipse;whiteSpace=wrap;html=1;rotation=-150;opacity=30;fillColor=#dae8fc;strokeColor=#6c8ebf;strokeWidth=2;" vertex="1" parent="jCoBixZJ-D_qapVqFaD_-27">
          <mxGeometry x="-75" y="76" width="290" height="140" as="geometry" />
        </mxCell>
        <mxCell id="jCoBixZJ-D_qapVqFaD_-36" value="&lt;span style=&quot;font-size: 24px;&quot;&gt;SSM&lt;/span&gt;" style="text;html=1;align=center;verticalAlign=middle;resizable=0;points=[];autosize=1;strokeColor=none;fillColor=none;" vertex="1" parent="jCoBixZJ-D_qapVqFaD_-27">
          <mxGeometry x="108.32000000000005" y="200" width="80" height="40" as="geometry" />
        </mxCell>
        <mxCell id="jCoBixZJ-D_qapVqFaD_-29" value="&lt;font style=&quot;font-size: 18px;&quot;&gt;CNN+RNN&lt;/font&gt;" style="text;html=1;align=center;verticalAlign=middle;resizable=0;points=[];autosize=1;strokeColor=none;fillColor=none;" vertex="1" parent="jCoBixZJ-D_qapVqFaD_-37">
          <mxGeometry x="197.6532055008467" y="159.10254037844385" width="110" height="40" as="geometry" />
        </mxCell>
        <mxCell id="jCoBixZJ-D_qapVqFaD_-22" value="&lt;font style=&quot;font-size: 24px;&quot;&gt;GCN&lt;/font&gt;" style="text;html=1;align=center;verticalAlign=middle;resizable=0;points=[];autosize=1;strokeColor=none;fillColor=none;" vertex="1" parent="jCoBixZJ-D_qapVqFaD_-37">
          <mxGeometry x="287.65320550084675" y="469.86254037844384" width="80" height="40" as="geometry" />
        </mxCell>
        <mxCell id="jCoBixZJ-D_qapVqFaD_-32" value="&lt;font style=&quot;font-size: 18px;&quot;&gt;CNN+GCN&lt;/font&gt;" style="text;html=1;align=center;verticalAlign=middle;resizable=0;points=[];autosize=1;strokeColor=none;fillColor=none;" vertex="1" parent="jCoBixZJ-D_qapVqFaD_-37">
          <mxGeometry x="92.6532055008467" y="179.10254037844385" width="110" height="40" as="geometry" />
        </mxCell>
        <mxCell id="jCoBixZJ-D_qapVqFaD_-33" value="&lt;font style=&quot;font-size: 18px;&quot;&gt;RNN+GCN&lt;/font&gt;" style="text;html=1;align=center;verticalAlign=middle;resizable=0;points=[];autosize=1;strokeColor=none;fillColor=none;" vertex="1" parent="jCoBixZJ-D_qapVqFaD_-37">
          <mxGeometry x="147.6532055008467" y="291.60254037844385" width="110" height="40" as="geometry" />
        </mxCell>
        <mxCell id="jCoBixZJ-D_qapVqFaD_-34" value="&lt;font style=&quot;font-size: 18px;&quot;&gt;RNN+GCN&lt;/font&gt;&lt;div&gt;&lt;font style=&quot;font-size: 18px;&quot;&gt;+RNN&lt;/font&gt;&lt;/div&gt;" style="text;html=1;align=center;verticalAlign=middle;resizable=0;points=[];autosize=1;strokeColor=none;fillColor=none;" vertex="1" parent="jCoBixZJ-D_qapVqFaD_-37">
          <mxGeometry x="147.6532055008467" y="216.74254037844383" width="110" height="60" as="geometry" />
        </mxCell>
      </root>
    </mxGraphModel>
  </diagram>
</mxfile>
